<?xml version="1.0" encoding="utf-8"?>
<!-- Generator: Adobe Illustrator 19.1.0, SVG Export Plug-In . SVG Version: 6.00 Build 0)  -->
<svg version="1.1" xmlns="http://www.w3.org/2000/svg" xmlns:xlink="http://www.w3.org/1999/xlink" x="0px" y="0px"
	 viewBox="0 0 960 560" enable-background="new 0 0 960 560" xml:space="preserve">
<g id="Layer_1">
	<polygon fill="#2A2E33" stroke="#FFFFFF" stroke-miterlimit="10" points="960,560 0,560 0,526 0,0 960,0 	"/>
</g>
<g id="Layer_2">
	<path opacity="5.000000e-02" fill="#D4E9FF" d="M57,469c41-41,123-111,115-79s77,8,94-17s310-129,207-147s313-78,328-155
		S926-160,927-55S755,366,656,336s-132-79-189-18S315,510,229,505S68,593,24,592s-80-134-44-135S57,469,57,469z"/>
	<path opacity="2.000000e-02" fill="#D4E9FF" d="M-43,560c36-38,36-50,102-50s82,9,110-38s15-88,78-120s-34-28,78-38
		s104-32.5,204-63.2S607,197,654,137s33-81,97-130s88-83,124-61s-18,114-21,184s-61,150-62,83s-41-74-118,18s-47,208-130,208
		s-184-78-215-61s-63,157-94,157s-277,82-278,62S-43,560-43,560z"/>
</g>
<g id="Layer_3">
	<g>
		<g>
			<g>
				<path fill="#D4E9FF" d="M66,516.5c1.9,0,1.9-3,0-3C64.1,513.5,64.1,516.5,66,516.5L66,516.5z"/>
			</g>
		</g>
		<g>
			<g>
				<path fill="#D4E9FF" d="M94,474.5c1.9,0,1.9-3,0-3C92.1,471.5,92.1,474.5,94,474.5L94,474.5z"/>
			</g>
		</g>
		<g>
			<g>
				<path fill="#D4E9FF" d="M149,463.5c1.9,0,1.9-3,0-3C147.1,460.5,147.1,463.5,149,463.5L149,463.5z"/>
			</g>
		</g>
		<g>
			<g>
				<path fill="#D4E9FF" d="M420,405.5c1.9,0,1.9-3,0-3C418.1,402.5,418.1,405.5,420,405.5L420,405.5z"/>
			</g>
		</g>
		<g>
			<g>
				<path fill="#D4E9FF" d="M572,270.5c1.9,0,1.9-3,0-3C570.1,267.5,570.1,270.5,572,270.5L572,270.5z"/>
			</g>
		</g>
		<g>
			<g>
				<path fill="#D4E9FF" d="M853,135.5c1.9,0,1.9-3,0-3C851.1,132.5,851.1,135.5,853,135.5L853,135.5z"/>
			</g>
		</g>
		<g>
			<g>
				<path fill="#D4E9FF" d="M945,61.5c1.9,0,1.9-3,0-3C943.1,58.5,943.1,61.5,945,61.5L945,61.5z"/>
			</g>
		</g>
		<g>
			<g>
				<path fill="#D4E9FF" d="M45,231.1c1.4,0,1.5-2.2,0-2.2C43.6,228.9,43.5,231.1,45,231.1L45,231.1z"/>
			</g>
		</g>
		<g>
			<g>
				<path fill="#D4E9FF" d="M247,170.1c1.4,0,1.5-2.2,0-2.2C245.6,167.9,245.5,170.1,247,170.1L247,170.1z"/>
			</g>
		</g>
		<g>
			<g>
				<path fill="#D4E9FF" d="M62,69.4c0.5,0,0.5-0.8,0-0.8C61.5,68.6,61.5,69.4,62,69.4L62,69.4z"/>
			</g>
		</g>
		<g>
			<g>
				<path fill="#D4E9FF" d="M334,78.4c0.5,0,0.5-0.8,0-0.8C333.5,77.6,333.5,78.4,334,78.4L334,78.4z"/>
			</g>
		</g>
		<g>
			<g>
				<path fill="#D4E9FF" d="M345,178.4c0.5,0,0.5-0.8,0-0.8C344.5,177.6,344.5,178.4,345,178.4L345,178.4z"/>
			</g>
		</g>
		<g>
			<g>
				<path fill="#D4E9FF" d="M807,464.4c0.5,0,0.5-0.8,0-0.8C806.5,463.6,806.5,464.4,807,464.4L807,464.4z"/>
			</g>
		</g>
		<g>
			<g>
				<path fill="#D4E9FF" d="M718,499.4c0.5,0,0.5-0.8,0-0.8C717.5,498.6,717.5,499.4,718,499.4L718,499.4z"/>
			</g>
		</g>
		<g>
			<g>
				<path fill="#D4E9FF" d="M889,377.4c0.5,0,0.5-0.8,0-0.8C888.5,376.6,888.5,377.4,889,377.4L889,377.4z"/>
			</g>
		</g>
		<g>
			<g>
				<path fill="#D4E9FF" d="M250,114.1c1.4,0,1.5-2.2,0-2.2C248.6,111.9,248.5,114.1,250,114.1L250,114.1z"/>
			</g>
		</g>
		<g>
			<g>
				<path fill="#D4E9FF" d="M588,516.1c1.4,0,1.5-2.2,0-2.2C586.6,513.9,586.5,516.1,588,516.1L588,516.1z"/>
			</g>
		</g>
		<g>
			<g>
				<path fill="#D4E9FF" d="M637,97.1c1.4,0,1.5-2.2,0-2.2C635.6,94.9,635.5,97.1,637,97.1L637,97.1z"/>
			</g>
		</g>
		<g>
			<g>
				<path fill="#D4E9FF" d="M838,323.1c1.4,0,1.5-2.2,0-2.2C836.6,320.9,836.5,323.1,838,323.1L838,323.1z"/>
			</g>
		</g>
		<g>
			<g>
				<path fill="#D4E9FF" d="M767,112.5c1.9,0,1.9-3,0-3C765.1,109.5,765.1,112.5,767,112.5L767,112.5z"/>
			</g>
		</g>
		<g>
			<g>
				<path fill="#D4E9FF" d="M708,234.5c1.9,0,1.9-3,0-3C706.1,231.5,706.1,234.5,708,234.5L708,234.5z"/>
			</g>
		</g>
		<g>
			<g>
				<path fill="#EFFFCC" d="M821,86.5c1.9,0,1.9-3,0-3C819.1,83.5,819.1,86.5,821,86.5L821,86.5z"/>
			</g>
		</g>
		<g>
			<g>
				<path fill="#EFFFCC" d="M661,360.5c1.9,0,1.9-3,0-3C659.1,357.5,659.1,360.5,661,360.5L661,360.5z"/>
			</g>
		</g>
		<g>
			<g>
				<path fill="#EFFFCC" d="M247,448c3.9,0,3.9-6,0-6C243.1,442,243.1,448,247,448L247,448z"/>
			</g>
		</g>
		<g>
			<g>
				<path fill="#EFFFCC" d="M538,412c3.9,0,3.9-6,0-6C534.1,406,534.1,412,538,412L538,412z"/>
			</g>
		</g>
		<g>
			<g>
				<path fill="#EFFFCC" d="M664,202c3.9,0,3.9-6,0-6C660.1,196,660.1,202,664,202L664,202z"/>
			</g>
		</g>
		<g>
			<g>
				<path fill="#EFFFCC" d="M798,150c3.9,0,3.9-6,0-6C794.1,144,794.1,150,798,150L798,150z"/>
			</g>
		</g>
		<g>
			<g>
				<path fill="#EFFFCC" d="M899,56.5c5.8,0,5.8-9,0-9C893.2,47.5,893.2,56.5,899,56.5L899,56.5z"/>
			</g>
		</g>
		<g>
			<g>
				<path fill="#EFFFCC" d="M105,47.5c1.9,0,1.9-3,0-3C103.1,44.5,103.1,47.5,105,47.5L105,47.5z"/>
			</g>
		</g>
		<g>
			<g>
				<path fill="#EFFFCC" d="M840,496.5c1.9,0,1.9-3,0-3C838.1,493.5,838.1,496.5,840,496.5L840,496.5z"/>
			</g>
		</g>
		<g>
			<g>
				<path fill="#EFFFCC" d="M355,94.4c0.5,0,0.5-0.8,0-0.8C354.5,93.6,354.5,94.4,355,94.4L355,94.4z"/>
			</g>
		</g>
		<g>
			<g>
				<path fill="#EFFFCC" d="M195,110.8c1,0,1-1.5,0-1.5C194,109.2,194,110.8,195,110.8L195,110.8z"/>
			</g>
		</g>
		<g>
			<g>
				<path fill="#EFFFCC" d="M571,95.8c1,0,1-1.5,0-1.5C570,94.2,570,95.8,571,95.8L571,95.8z"/>
			</g>
		</g>
		<g>
			<g>
				<path fill="#EFFFCC" d="M144,164.8c1,0,1-1.5,0-1.5C143,163.2,143,164.8,144,164.8L144,164.8z"/>
			</g>
		</g>
		<g>
			<g>
				<path fill="#EFFFCC" d="M164,273.8c1,0,1-1.5,0-1.5C163,272.2,163,273.8,164,273.8L164,273.8z"/>
			</g>
		</g>
		<g>
			<g>
				<path fill="#EFFFCC" d="M404,28.1c1.4,0,1.5-2.2,0-2.2C402.6,25.9,402.5,28.1,404,28.1L404,28.1z"/>
			</g>
		</g>
		<g>
			<g>
				<path fill="#EFFFCC" d="M780,465.1c1.4,0,1.5-2.2,0-2.2C778.6,462.9,778.5,465.1,780,465.1L780,465.1z"/>
			</g>
		</g>
		<g>
			<g>
				<path fill="#EFFFCC" d="M391,536.1c1.4,0,1.5-2.2,0-2.2C389.6,533.9,389.5,536.1,391,536.1L391,536.1z"/>
			</g>
		</g>
		<g>
			<g>
				<path fill="#EFFFCC" d="M484,220.1c1.4,0,1.5-2.2,0-2.2C482.6,217.9,482.5,220.1,484,220.1L484,220.1z"/>
			</g>
		</g>
		<g>
			<g>
				<path fill="#EFFFCC" d="M939,396.5c1.9,0,1.9-3,0-3C937.1,393.5,937.1,396.5,939,396.5L939,396.5z"/>
			</g>
		</g>
		<g>
			<g>
				<path fill="#FFE1E1" d="M494,34.5c1.9,0,1.9-3,0-3C492.1,31.5,492.1,34.5,494,34.5L494,34.5z"/>
			</g>
		</g>
		<g>
			<g>
				<path fill="#FFE1E1" d="M344,292.5c1.9,0,1.9-3,0-3C342.1,289.5,342.1,292.5,344,292.5L344,292.5z"/>
			</g>
		</g>
		<g>
			<g>
				<path fill="#FFE1E1" d="M377,411.5c1.9,0,1.9-3,0-3C375.1,408.5,375.1,411.5,377,411.5L377,411.5z"/>
			</g>
		</g>
	</g>
	<g>
		<g>
			<path fill="#FFE1E1" d="M76,396.5c1.9,0,1.9-3,0-3C74.1,393.5,74.1,396.5,76,396.5L76,396.5z"/>
		</g>
	</g>
</g>
<g id="Layer_4">
	<linearGradient id="SVGID_1_" gradientUnits="userSpaceOnUse" x1="261.3719" y1="-98.675" x2="743.859" y2="737.0172">
		<stop  offset="0" style="stop-color:#020202"/>
		<stop  offset="0.1028" style="stop-color:#050505"/>
		<stop  offset="0.1645" style="stop-color:#0D0D0D"/>
		<stop  offset="0.2154" style="stop-color:#1B1B1B"/>
		<stop  offset="0.2604" style="stop-color:#2F2F2F"/>
		<stop  offset="0.3015" style="stop-color:#4A4A4A"/>
		<stop  offset="0.3397" style="stop-color:#6A6A6A"/>
		<stop  offset="0.3758" style="stop-color:#919191"/>
		<stop  offset="0.4101" style="stop-color:#BDBDBD"/>
		<stop  offset="0.4419" style="stop-color:#EEEEEE"/>
		<stop  offset="0.4478" style="stop-color:#F8F8F8"/>
		<stop  offset="0.4502" style="stop-color:#F5F5F5"/>
		<stop  offset="0.4927" style="stop-color:#C2C2C2"/>
		<stop  offset="0.5377" style="stop-color:#949494"/>
		<stop  offset="0.5851" style="stop-color:#6C6C6C"/>
		<stop  offset="0.635" style="stop-color:#4B4B4B"/>
		<stop  offset="0.6881" style="stop-color:#2F2F2F"/>
		<stop  offset="0.7454" style="stop-color:#1A1A1A"/>
		<stop  offset="0.8092" style="stop-color:#0B0B0B"/>
		<stop  offset="0.8844" style="stop-color:#030303"/>
		<stop  offset="1" style="stop-color:#000000"/>
	</linearGradient>
	<rect fill="url(#SVGID_1_)" fill-opacity="0.53" width="960" height="560"/>
</g>
</svg>
